<?xml version="1.0" standalone="no"?>
<!DOCTYPE svg PUBLIC "-//W3C//DTD SVG 20010904//EN"
 "http://www.w3.org/TR/2001/REC-SVG-20010904/DTD/svg10.dtd">
<svg version="1.0" xmlns="http://www.w3.org/2000/svg"
 width="16.000000pt" height="16.000000pt" viewBox="0 0 16.000000 16.000000"
 preserveAspectRatio="xMidYMid meet">
<metadata>
Created by potrace 1.11, written by Peter Selinger 2001-2013
</metadata>
<g transform="translate(0.000000,16.000000) scale(0.004188,-0.004188)"
fill="#000000" stroke="none">
<path d="M2280 3505 c0 -7 -204 -10 -597 -10 l-598 0 0 -190 0 -190 1038 -2
1037 -1 -2 191 -3 192 -430 0 c-285 -1 -432 3 -437 10 -5 6 -8 6 -8 0z"/>
<path d="M1088 2185 c-1 0 -2 -444 -3 -987 -2 -894 0 -987 14 -990 9 -2 108
-3 221 -3 l205 1 5 790 5 789 728 0 727 -1 1 31 c1 37 1 334 0 355 -1 13 -114
15 -951 15 -523 0 -951 0 -952 0z"/>
</g>
</svg>
